<svg width="15" height="9" viewBox="0 0 15 9" fill="none" xmlns="http://www.w3.org/2000/svg">
    <path d="M2.39282 3.4375H0.976156C0.788294 3.4375 0.608127 3.51213 0.475288 3.64497C0.34245 3.77781 0.267822 3.95797 0.267822 4.14584C0.267822 4.3337 0.34245 4.51387 0.475288 4.6467C0.608127 4.77954 0.788294 4.85417 0.976156 4.85417H2.39282C2.58068 4.85417 2.76085 4.77954 2.89369 4.6467C3.02653 4.51387 3.10116 4.3337 3.10116 4.14584C3.10116 3.95797 3.02653 3.77781 2.89369 3.64497C2.76085 3.51213 2.58068 3.4375 2.39282 3.4375ZM14.2787 1.42584V1.38334C14.0757 1.13527 13.8193 0.936325 13.5286 0.801392C13.2378 0.66646 12.9204 0.599036 12.5999 0.60417H6.98282C6.46234 0.599495 5.95825 0.78601 5.56616 1.12834C5.19995 1.45101 4.95918 1.89242 4.88616 2.375L4.26282 5.91667C4.20922 6.22252 4.2233 6.53641 4.30407 6.83624C4.38484 7.13606 4.53034 7.41455 4.73032 7.65209C4.92926 7.88884 5.17748 8.07931 5.45764 8.21022C5.73781 8.34112 6.04317 8.40931 6.35241 8.41H11.9766C12.4818 8.41764 12.9732 8.24501 13.3626 7.92307C13.7521 7.60114 14.014 7.15097 14.1016 6.65334L14.7249 3.11167C14.774 2.81509 14.7596 2.51147 14.6827 2.22087C14.6058 1.93026 14.468 1.65929 14.2787 1.42584ZM12.3378 2.02084L9.92949 3.97584C9.7871 4.0906 9.60583 4.14584 9.42364 4.12999C9.24144 4.11415 9.07244 4.02845 8.95199 3.89084L7.30157 2.02084H12.3378ZM12.6778 6.39125C12.6491 6.55757 12.562 6.70818 12.4322 6.81596C12.3023 6.92375 12.1382 6.98162 11.9695 6.97917H6.35241C6.24954 6.97831 6.1481 6.95505 6.05513 6.91101C5.96216 6.86697 5.8799 6.80322 5.81407 6.72417C5.74807 6.64554 5.69995 6.5535 5.67305 6.45444C5.64614 6.35537 5.64109 6.25163 5.65824 6.15042L6.22491 2.94167L7.88949 4.82584C8.25181 5.23764 8.75932 5.49339 9.30588 5.5396C9.85243 5.5858 10.3957 5.41888 10.822 5.07375L13.2587 3.08334L12.6778 6.39125ZM3.10116 0.60417H0.976156C0.788294 0.60417 0.608127 0.678798 0.475288 0.811636C0.34245 0.944474 0.267822 1.12464 0.267822 1.3125C0.267822 1.50036 0.34245 1.68053 0.475288 1.81337C0.608127 1.94621 0.788294 2.02084 0.976156 2.02084H3.10116C3.28902 2.02084 3.46918 1.94621 3.60202 1.81337C3.73486 1.68053 3.80949 1.50036 3.80949 1.3125C3.80949 1.12464 3.73486 0.944474 3.60202 0.811636C3.46918 0.678798 3.28902 0.60417 3.10116 0.60417Z" fill="white"/>
</svg>
