<svg width="14" height="12" viewBox="0 0 14 12" fill="none" xmlns="http://www.w3.org/2000/svg">
<path d="M1.18766 6.18783C1.14741 6.06684 1.14741 5.93607 1.18766 5.81508C1.99675 3.38083 4.29333 1.625 7 1.625C9.7055 1.625 12.0009 3.37908 12.8117 5.81217C12.8526 5.93292 12.8526 6.06358 12.8117 6.18492C12.0032 8.61917 9.70666 10.375 7 10.375C4.2945 10.375 1.9985 8.62092 1.18766 6.18783Z" stroke="#D9D9D9" stroke-width="1.5" stroke-linecap="round" stroke-linejoin="round"/>
<path d="M8.75 6C8.75 6.46413 8.56563 6.90925 8.23744 7.23744C7.90925 7.56563 7.46413 7.75 7 7.75C6.53587 7.75 6.09075 7.56563 5.76256 7.23744C5.43437 6.90925 5.25 6.46413 5.25 6C5.25 5.53587 5.43437 5.09075 5.76256 4.76256C6.09075 4.43437 6.53587 4.25 7 4.25C7.46413 4.25 7.90925 4.43437 8.23744 4.76256C8.56563 5.09075 8.75 5.53587 8.75 6Z" stroke="#D9D9D9" stroke-width="1.5" stroke-linecap="round" stroke-linejoin="round"/>
</svg>

