
<svg width="15" height="14" viewBox="0 0 15 14" fill="none" xmlns="http://www.w3.org/2000/svg">
<path d="M7.24854 13.3112L7.24358 13.3091L7.228 13.3006C7.13683 13.2505 7.04639 13.199 6.95671 13.1462C5.87849 12.5055 4.87086 11.7529 3.95054 10.9008C2.32067 9.37999 0.59375 7.12324 0.59375 4.34374C0.59375 2.26974 2.33908 0.624989 4.44567 0.624989C5.03128 0.622121 5.61001 0.751314 6.13881 1.00296C6.66761 1.25461 7.13287 1.62223 7.5 2.07849C7.8672 1.62214 8.33258 1.25446 8.86151 1.00281C9.39044 0.751156 9.96931 0.622014 10.555 0.624989C12.6609 0.624989 14.4062 2.26974 14.4062 4.34374C14.4062 7.12395 12.6793 9.3807 11.0495 10.9001C10.1292 11.7522 9.12152 12.5048 8.04329 13.1455C7.95361 13.1985 7.86317 13.2502 7.772 13.3006L7.75642 13.3091L7.75146 13.3119L7.74933 13.3127C7.67252 13.3533 7.58692 13.3746 7.5 13.3746C7.41308 13.3746 7.32748 13.3533 7.25067 13.3127L7.24854 13.3112Z" fill="#9747FF"/>
</svg>

