<svg width="15" height="15" viewBox="0 0 15 15" fill="none" xmlns="http://www.w3.org/2000/svg">
    <path d="M7.50009 0.416664C6.09913 0.416664 4.72964 0.832094 3.5648 1.61042C2.39995 2.38875 1.49206 3.49501 0.955938 4.78932C0.419817 6.08363 0.279544 7.50785 0.552856 8.88189C0.826168 10.2559 1.50079 11.518 2.49141 12.5087C3.48203 13.4993 4.74416 14.1739 6.1182 14.4472C7.49223 14.7205 8.91645 14.5803 10.2108 14.0441C11.5051 13.508 12.6113 12.6001 13.3897 11.4353C14.168 10.2704 14.5834 8.90095 14.5834 7.5C14.5834 6.5698 14.4002 5.64871 14.0442 4.78932C13.6883 3.92993 13.1665 3.14907 12.5088 2.49132C11.851 1.83358 11.0701 1.31182 10.2108 0.955851C9.35137 0.59988 8.43028 0.416664 7.50009 0.416664ZM7.50009 13.1667C6.37932 13.1667 5.28373 12.8343 4.35185 12.2117C3.41997 11.589 2.69366 10.704 2.26477 9.66854C1.83587 8.63309 1.72365 7.49371 1.9423 6.39449C2.16095 5.29526 2.70065 4.28556 3.49315 3.49306C4.28564 2.70056 5.29535 2.16086 6.39457 1.94221C7.4938 1.72356 8.63318 1.83578 9.66862 2.26468C10.7041 2.69358 11.5891 3.41989 12.2117 4.35177C12.8344 5.28364 13.1668 6.37924 13.1668 7.5C13.1668 9.00289 12.5697 10.4442 11.507 11.5069C10.4443 12.5696 9.00298 13.1667 7.50009 13.1667ZM10.3334 6.79166H8.20842V4.66666C8.20842 4.4788 8.13379 4.29864 8.00095 4.1658C7.86811 4.03296 7.68795 3.95833 7.50009 3.95833C7.31222 3.95833 7.13206 4.03296 6.99922 4.1658C6.86638 4.29864 6.79175 4.4788 6.79175 4.66666V6.79166H4.66675C4.47889 6.79166 4.29872 6.86629 4.16588 6.99913C4.03305 7.13197 3.95842 7.31214 3.95842 7.5C3.95842 7.68786 4.03305 7.86803 4.16588 8.00086C4.29872 8.1337 4.47889 8.20833 4.66675 8.20833H6.79175V10.3333C6.79175 10.5212 6.86638 10.7014 6.99922 10.8342C7.13206 10.967 7.31222 11.0417 7.50009 11.0417C7.68795 11.0417 7.86811 10.967 8.00095 10.8342C8.13379 10.7014 8.20842 10.5212 8.20842 10.3333V8.20833H10.3334C10.5213 8.20833 10.7014 8.1337 10.8343 8.00086C10.9671 7.86803 11.0418 7.68786 11.0418 7.5C11.0418 7.31214 10.9671 7.13197 10.8343 6.99913C10.7014 6.86629 10.5213 6.79166 10.3334 6.79166Z" fill="#252525"/>
</svg>
