<svg width="14" height="15" viewBox="0 0 14 15" fill="none" xmlns="http://www.w3.org/2000/svg">
<path fill-rule="evenodd" clip-rule="evenodd" d="M9.49991 2.49998C9.49987 2.03507 9.66181 1.58466 9.95787 1.2262C10.2539 0.867736 10.6656 0.623618 11.1222 0.535813C11.5787 0.448008 12.0516 0.522002 12.4595 0.745073C12.8674 0.968145 13.1849 1.32636 13.3573 1.75812C13.5297 2.18989 13.5463 2.66824 13.4043 3.11092C13.2622 3.55361 12.9704 3.93297 12.5789 4.18379C12.1875 4.43462 11.7208 4.54123 11.2593 4.48529C10.7978 4.42936 10.3701 4.21438 10.0499 3.87732L4.43591 6.99665C4.52168 7.32673 4.52168 7.67324 4.43591 8.00332L10.0499 11.1227C10.3854 10.7699 10.838 10.5516 11.323 10.5088C11.8079 10.4659 12.2918 10.6014 12.684 10.8898C13.0762 11.1782 13.3497 11.5997 13.4533 12.0754C13.5569 12.551 13.4834 13.0482 13.2467 13.4735C13.01 13.8989 12.6263 14.2234 12.1674 14.386C11.7086 14.5487 11.2062 14.5385 10.7544 14.3572C10.3026 14.1759 9.93241 13.8361 9.71325 13.4014C9.49409 12.9667 9.44099 12.467 9.56391 11.996L3.94991 8.87732C3.67448 9.16731 3.31843 9.36807 2.92774 9.45366C2.53706 9.53924 2.12969 9.50573 1.75824 9.35744C1.3868 9.20916 1.06834 8.95292 0.844004 8.62181C0.619668 8.2907 0.499756 7.89993 0.499756 7.49998C0.499756 7.10004 0.619668 6.70927 0.844004 6.37816C1.06834 6.04705 1.3868 5.79081 1.75824 5.64253C2.12969 5.49424 2.53706 5.46073 2.92774 5.54632C3.31843 5.6319 3.67448 5.83266 3.94991 6.12265L9.56391 3.00332C9.5213 2.83894 9.49979 2.6698 9.49991 2.49998Z" fill="white"/>
</svg>

