<svg width="15" height="15" viewBox="0 0 15 15" fill="none" xmlns="http://www.w3.org/2000/svg">
<path d="M5.16954 4.46125L6.79163 2.83208V9.625C6.79163 9.81286 6.86625 9.99303 6.99909 10.1259C7.13193 10.2587 7.3121 10.3333 7.49996 10.3333C7.68782 10.3333 7.86799 10.2587 8.00083 10.1259C8.13366 9.99303 8.20829 9.81286 8.20829 9.625V2.83208L9.83038 4.46125C9.89622 4.52764 9.97457 4.58033 10.0609 4.6163C10.1472 4.65226 10.2398 4.67077 10.3333 4.67077C10.4268 4.67077 10.5194 4.65226 10.6057 4.6163C10.692 4.58033 10.7704 4.52764 10.8362 4.46125C10.9026 4.3954 10.9553 4.31706 10.9913 4.23074C11.0272 4.14442 11.0457 4.05184 11.0457 3.95833C11.0457 3.86482 11.0272 3.77224 10.9913 3.68592C10.9553 3.59961 10.9026 3.52126 10.8362 3.45541L8.00288 0.622081C7.93551 0.557594 7.85607 0.507044 7.76913 0.473331C7.59667 0.402485 7.40324 0.402485 7.23079 0.473331C7.14384 0.507044 7.06441 0.557594 6.99704 0.622081L4.16371 3.45541C4.09767 3.52146 4.04528 3.59986 4.00953 3.68615C3.97379 3.77245 3.95539 3.86493 3.95539 3.95833C3.95539 4.05173 3.97379 4.14422 4.00953 4.23051C4.04528 4.3168 4.09767 4.3952 4.16371 4.46125C4.22975 4.52729 4.30816 4.57968 4.39445 4.61542C4.48074 4.65117 4.57323 4.66956 4.66663 4.66956C4.76003 4.66956 4.85251 4.65117 4.9388 4.61542C5.02509 4.57968 5.1035 4.52729 5.16954 4.46125ZM13.875 7.5C13.6871 7.5 13.5069 7.57463 13.3741 7.70746C13.2413 7.8403 13.1666 8.02047 13.1666 8.20833V12.4583C13.1666 12.6462 13.092 12.8264 12.9592 12.9592C12.8263 13.092 12.6462 13.1667 12.4583 13.1667H2.54163C2.35376 13.1667 2.1736 13.092 2.04076 12.9592C1.90792 12.8264 1.83329 12.6462 1.83329 12.4583V8.20833C1.83329 8.02047 1.75866 7.8403 1.62583 7.70746C1.49299 7.57463 1.31282 7.5 1.12496 7.5C0.937098 7.5 0.75693 7.57463 0.624092 7.70746C0.491254 7.8403 0.416626 8.02047 0.416626 8.20833V12.4583C0.416626 13.0219 0.640509 13.5624 1.03902 13.9609C1.43754 14.3594 1.97804 14.5833 2.54163 14.5833H12.4583C13.0219 14.5833 13.5624 14.3594 13.9609 13.9609C14.3594 13.5624 14.5833 13.0219 14.5833 12.4583V8.20833C14.5833 8.02047 14.5087 7.8403 14.3758 7.70746C14.243 7.57463 14.0628 7.5 13.875 7.5Z" fill="white"/>
</svg>

